<svg xmlns="http://www.w3.org/2000/svg" xmlns:xlink="http://www.w3.org/1999/xlink" width="699.2" height="740" viewBox="0 0 699.2 740">
  <defs>
    <radialGradient id="radial-gradient" cx="-0.308" cy="0.547" r="1.453" gradientTransform="matrix(0.999, 0.033, -0.017, 0.532, 0.009, 0.266)" gradientUnits="objectBoundingBox">
      <stop offset="0" stop-color="#ffa4b8"/>
      <stop offset="1" stop-color="#dd0031"/>
    </radialGradient>
    <radialGradient id="radial-gradient-2" cx="0.487" cy="-1.383" r="2.383" gradientTransform="matrix(0, 1, -0.547, 0, -0.269, -1.871)" xlink:href="#radial-gradient"/>
    <radialGradient id="radial-gradient-3" cx="1.308" cy="0.547" r="1.453" gradientTransform="matrix(-0.999, 0.033, 0.017, 0.532, 2.605, 0.214)" xlink:href="#radial-gradient"/>
    <radialGradient id="radial-gradient-4" cx="0.5" cy="0.5" r="0.802" gradientTransform="translate(0.016 -0.015) rotate(1.794)" gradientUnits="objectBoundingBox">
      <stop offset="0" stop-color="#ff4a72"/>
      <stop offset="1" stop-color="#dd0031"/>
    </radialGradient>
  </defs>
  <g id="ngx-quill-logo-variant-1" transform="translate(-150.4 -130)">
    <g id="icon_angular" transform="translate(20.4 20.2)">
      <path id="Path_1" data-name="Path 1" d="M562.6,109.8,804.1,629.5l25.1-396.4Z" fill="url(#radial-gradient)"/>
      <path id="Path_2" data-name="Path 2" d="M624.9,655.9H334.3l-37.1,89.9,182.4,104L662,745.8Z" fill="url(#radial-gradient-2)"/>
      <path id="Path_12" data-name="Path 12" d="M829.2,109.8,587.7,629.5,562.6,233.1Z" transform="translate(-432.6)" fill="url(#radial-gradient-3)"/>
    </g>
    <path id="Subtraction_2" data-name="Subtraction 2" d="M15.4,264.774c-1.233,0-2.616-.038-4.108-.112L0,264.094l20.367-33.151c11.4-18.655,20.75-35.3,21.293-37.885,2.079-10.826,14.958-49.806,21.478-66.111,3.96-9.78,8.276-19.536,12.828-29,4.446-9.241,9.007-17.976,13.557-25.961,4.56-8,8.981-15.029,13.14-20.881a88.533,88.533,0,0,1,11.578-13.76,97.494,97.494,0,0,1,21.076-14.941,132.45,132.45,0,0,1,27.967-10.537,298.672,298.672,0,0,1,38.625-7.127c14.555-1.852,31.907-3.394,53.05-4.712.428-.02.764-.029,1.057-.029,1.23,0,1.888.18,2.27.621.7.8.527,2.6.005,6.228-.52,3.724-1.446,12.6-2.037,20.458a145.164,145.164,0,0,1-3.243,20.837,109.26,109.26,0,0,1-6.038,18.422,105.838,105.838,0,0,1-9.128,16.788,133.388,133.388,0,0,1-12.512,15.936l-12.591,13.828-17.59-.948c-3.311-.224-6.2-.332-8.827-.332-13.431,0-21.2,2.761-30.8,10.941l-6.3,5.3,14.812,1.137c7.612.544,16.854,2.019,20.182,3.22l5.369,2.083-4.629,3.789c-14.962,11.865-37.283,26.227-61.24,39.4C99.678,190.941,77.256,201.16,62.212,205.75c-4.305,1.34-8.266,6.843-20.182,28.036-7.5,13.42-15.67,27.586-17.034,28.983C23.677,264.118,20.539,264.774,15.4,264.774ZM214.593,26.36c-.528,0-6.421,3.078-13.516,7.2-40.9,22.894-80.883,61.711-112.574,109.3-9.265,13.881-13.873,21.11-13.345,22.1a.222.222,0,0,0,.213.113c1.623,0,10.846-9.247,30.907-29.976,21.41-22.1,54.633-55.263,73.136-73.309,22.506-22.164,35.333-35.073,35.192-35.416A.012.012,0,0,0,214.593,26.36Z" transform="translate(351.127 301.613)" fill="url(#radial-gradient-4)"/>
  </g>
</svg>